<?xml version="1.0" encoding="UTF-8"?>
<svg id="Layer_2" data-name="Layer 2" xmlns="http://www.w3.org/2000/svg" viewBox="0 0 442.51 92.12">
  <defs>
    <style>
      .cls-1 {
        font-family: AutomovePersonalUse, 'Automove Personal Use';
        font-size: 86.82px;
      }

      .cls-1, .cls-2 {
        stroke-miterlimit: 10;
      }

      .cls-1, .cls-2, .cls-3 {
        fill: none;
        stroke: #7a7ef6;
        stroke-width: 3px;
      }

      .cls-3 {
        stroke-linejoin: round;
      }
    </style>
  </defs>
  <g id="Layer_4" data-name="Layer 4">
    <g>
      <text class="cls-1" transform="translate(67.08 75.52) scale(.87 1)"><tspan x="0" y="0" xml:space="preserve">ARA    E</tspan></text>
      <g>
        <path class="cls-2" d="m15.62,36.1c-1.7.46-3.4.9-5.11,1.35-5.32,1.39-9.01,6.06-9.01,11.4v21.25c0,3.55,2.98,6.44,6.65,6.44h50.56c3.67,0,6.65-2.89,6.65-6.44v-19.73c0-1.87-1.56-3.39-3.5-3.39h-22.78c-1.94,0-3.5,1.52-3.5,3.39v4.26c0,1.87,1.56,3.39,3.5,3.39h10.59"/>
        <path class="cls-2" d="m19.08,34.79c1.19-.69,2.23-1.61,3.04-2.71,1.61-2.2,3.68-4.64,6.31-7.07.04-.04.09-.08.13-.12,5.56-5.11,12.8-8.16,20.44-8.74l16.37-1.25"/>
        <path class="cls-3" d="m19.08,34.79c-.82.48-1.72.86-2.67,1.1-.26.07-.53.14-.79.21l-3.79-1.88c-.44-.22-.93-.33-1.42-.33l-4.69-.02c-1.17,0-2.23-.41-2.99-1.08-.77-.66-1.24-1.58-1.24-2.6,0-2.03,1.9-3.68,4.24-3.68h3.97c1.68,0,3.19.99,3.81,2.51l1.36,3.34c.38.94,1.2,1.64,2.21,1.9l2,.52Z"/>
        <line class="cls-3" x1="15.63" y1="36.1" x2="15.62" y2="36.1"/>
      </g>
      <g>
        <path class="cls-2" d="m348.09,36.1c1.7.46,3.4.9,5.11,1.35,5.32,1.39,9.01,6.06,9.01,11.4v21.25c0,3.55-2.98,6.44-6.65,6.44h-50.56c-3.67,0-6.65-2.89-6.65-6.44v-19.73c0-1.87,1.56-3.39,3.5-3.39h22.78c1.94,0,3.5,1.52,3.5,3.39v4.26c0,1.87-1.56,3.39-3.5,3.39h-10.59"/>
        <path class="cls-2" d="m344.63,34.79c-1.19-.69-2.23-1.61-3.04-2.71-1.61-2.2-3.68-4.64-6.31-7.07-.04-.04-.09-.08-.13-.12-5.56-5.11-12.8-8.16-20.44-8.74l-16.37-1.25"/>
        <path class="cls-3" d="m344.63,34.79c.82.48,1.72.86,2.67,1.1.26.07.53.14.79.21l3.79-1.88c.44-.22.93-.33,1.42-.33l4.69-.02c1.17,0,2.23-.41,2.99-1.08.77-.66,1.24-1.58,1.24-2.6,0-2.03-1.9-3.68-4.24-3.68h-3.97c-1.68,0-3.19.99-3.81,2.51l-1.36,3.34c-.38.94-1.2,1.64-2.21,1.9l-2,.52Z"/>
        <line class="cls-3" x1="348.09" y1="36.1" x2="348.09" y2="36.1"/>
      </g>
    </g>
  </g>
</svg>