<?xml version="1.0" encoding="UTF-8"?>
<svg id="Layer_2" data-name="Layer 2" xmlns="http://www.w3.org/2000/svg" viewBox="0 0 3799.32 574.59">
  <defs>
    <style>
      .cls-1 {
        fill: none;
        stroke: #231f20;
        stroke-miterlimit: 10;
        stroke-width: 40.57px;
      }

      .cls-2 {
        fill: #231f20;
      }
    </style>
  </defs>
  <g id="Layer_4" data-name="Layer 4">
    <g>
      <g>
        <path class="cls-1" d="m838.02,121.07c30.02-62.43,87.46-100.79,149.47-100.79h232.36v534.02h-185.37v-160.21h-137.72l-77.67,160.21h-191.89l210.82-433.23Zm196.46,139.9v-107.56h-4.57c-9.14,0-18.28,6.77-22.84,15.04l-45.04,92.51h72.45Z"/>
        <path class="cls-1" d="m1465.25,554.3h-185.37V20.28h432.08c79.63,0,144.9,74.46,144.9,166.97,0,65.44-36.55,122.6-89.42,151.18l105.08,215.86h-191.89l-91.38-188.03c-3.92-7.52-11.1-12.79-18.93-12.79h-105.08v200.82Zm0-333.95h176.88c16.32,0,29.37-15.04,29.37-33.09s-13.05-33.85-29.37-33.85h-176.88v66.94Z"/>
        <path class="cls-1" d="m2107.5,121.07c30.02-62.43,87.46-100.79,149.47-100.79h232.36v534.02h-185.37v-160.21h-137.72l-77.67,160.21h-191.89l210.82-433.23Zm196.46,139.9v-107.56h-4.57c-9.14,0-18.28,6.77-22.84,15.04l-45.04,92.51h72.45Z"/>
        <path class="cls-1" d="m3202.06,348.97V20.28h576.98v133.13h-391.62v67.69h250.63v132.38h-250.63c1.96,38.36,29.37,67.69,62.66,67.69h328.96v133.13h-398.8c-98.56,0-178.19-91.76-178.19-205.33Z"/>
      </g>
      <g>
        <path class="cls-2" d="m509.94,569.41H75.89C34.05,569.41,0,536.18,0,495.33v-182.43C0,258.58,37.6,210.86,91.42,196.85c12.92-3.37,28.22-7.37,43.74-11.52l9.72,36.31c-15.63,4.19-31.01,8.21-43.99,11.59-37.27,9.7-63.29,42.47-63.29,79.68v182.43c0,20.13,17.18,36.5,38.3,36.5h434.05c21.12,0,38.29-16.37,38.29-36.5v-169.37c0-5.68-5.05-10.31-11.25-10.31h-195.56c-6.21,0-11.25,4.62-11.25,10.31v36.58c0,5.68,5.05,10.31,11.25,10.31h90.93v37.59h-90.93c-26.93,0-48.84-21.49-48.84-47.9v-36.58c0-26.41,21.91-47.9,48.84-47.9h195.56c26.93,0,48.84,21.49,48.84,47.9v169.37c0,40.85-34.04,74.09-75.88,74.09Z"/>
        <path class="cls-2" d="m179.14,208.53l-18.84-32.53c8.11-4.7,14.95-10.8,20.34-18.14,16.72-22.77,35.75-44.1,56.58-63.4l.59-.53c.23-.21.47-.43.71-.64,50.23-46.14,116.5-74.5,186.62-79.86l140.5-10.74,2.87,37.48-140.5,10.74c-61.8,4.73-120.1,29.65-164.17,70.17l-.53.48c-.22.2-.44.41-.67.61-19.03,17.65-36.42,37.14-51.69,57.94-8.47,11.55-19.17,21.11-31.8,28.43Z"/>
        <path class="cls-2" d="m140.04,222.31c-2.88,0-5.74-.66-8.36-1.96l-32.54-16.17c-1.16-.57-2.49-.88-3.82-.88l-40.3-.14c-14.18,0-27.67-4.94-37.94-13.92C6.22,179.83,0,166.54,0,152.78c0-27.76,24.76-50.35,55.19-50.35h34.05c22.19,0,41.86,13.05,50.11,33.24l11.67,28.75c1.02,2.5,3.37,4.47,6.24,5.21l17.16,4.43c7.37,1.9,12.86,8.07,13.91,15.61,1.05,7.54-2.55,14.97-9.12,18.81-8.66,5.06-17.93,8.9-27.58,11.41-1.14.31-2.28.6-3.41.9-1.1.29-2.19.58-3.3.87-1.6.43-3.24.64-4.87.64Zm-84.86-82.29c-9.54,0-17.6,5.84-17.6,12.76,0,3.92,2.6,6.75,4.14,8.09.03.02.05.05.08.07,3.36,2.94,8.2,4.63,13.27,4.63l40.3.14c5.72,0,11.51,1.11,16.9,3.23l-7.75-19.08c-2.43-5.95-8.45-9.83-15.3-9.83h-34.05Z"/>
        <polygon class="cls-2" points="140.08 222.31 140.04 222.31 140.04 184.72 140.08 222.31"/>
      </g>
      <g>
        <path class="cls-2" d="m3055.95,569.41h-434.05c-41.84,0-75.88-33.24-75.88-74.09v-169.37c0-26.41,21.91-47.9,48.84-47.9h195.56c26.93,0,48.84,21.49,48.84,47.9v36.58c0,26.41-21.91,47.9-48.84,47.9h-90.93v-37.59h90.93c6.21,0,11.25-4.62,11.25-10.31v-36.58c0-5.68-5.05-10.31-11.25-10.31h-195.56c-6.21,0-11.25,4.62-11.25,10.31v169.37c0,20.13,17.18,36.5,38.3,36.5h434.05c21.12,0,38.29-16.37,38.29-36.5v-182.43c0-37.21-26.03-69.98-63.29-79.68-13.02-3.39-28.43-7.42-43.99-11.59l9.72-36.31c15.46,4.14,30.79,8.15,43.75,11.53,53.82,14.01,91.4,61.73,91.4,116.05v182.43c0,40.85-34.04,74.09-75.88,74.09Z"/>
        <path class="cls-2" d="m2952.7,208.53c-12.63-7.31-23.33-16.88-31.8-28.43-15.27-20.8-32.66-40.29-51.69-57.94-.23-.2-.45-.41-.67-.61l-.53-.48c-44.07-40.52-102.37-65.44-164.17-70.17l-140.49-10.74,2.87-37.48,140.5,10.74c70.12,5.36,136.39,33.72,186.62,79.86.24.21.47.43.71.64l.59.53c20.83,19.3,39.87,40.63,56.58,63.4,5.39,7.34,12.23,13.45,20.34,18.14l-18.84,32.53Z"/>
        <path class="cls-2" d="m2991.8,222.31c-1.63,0-3.27-.21-4.87-.64-1.11-.3-2.21-.59-3.32-.88-1.13-.3-2.26-.59-3.39-.9-9.65-2.5-18.92-6.34-27.58-11.41-6.57-3.84-10.17-11.27-9.12-18.81,1.05-7.54,6.54-13.7,13.91-15.61l17.18-4.44c2.85-.74,5.2-2.71,6.24-5.26l11.63-28.65c8.27-20.23,27.94-33.28,50.13-33.28h34.05c30.43,0,55.19,22.59,55.19,50.35,0,13.77-6.24,27.07-17.11,36.49-10.26,8.96-23.75,13.89-37.97,13.89l-40.18.14c-1.39,0-2.72.31-3.93.91l-32.49,16.14c-2.62,1.3-5.48,1.96-8.36,1.96Zm50.81-82.29c-6.86,0-12.87,3.88-15.32,9.87l-7.73,19.05c5.41-2.12,11.2-3.23,16.96-3.23l40.18-.14c5.13,0,9.97-1.69,13.34-4.63.03-.02.05-.05.08-.07,1.55-1.34,4.14-4.17,4.14-8.09,0-6.92-8.06-12.76-17.6-12.76h-34.05Z"/>
        <polygon class="cls-2" points="2991.8 222.31 2991.76 184.72 2991.8 184.72 2991.8 222.31"/>
      </g>
    </g>
  </g>
</svg>