<?xml version="1.0" standalone="no"?>
<svg viewBox="0 0 200 200" xmlns="http://www.w3.org/2000/svg">
  <path fill="#7A7EF6" d="M31.5,-58.3C41.5,-48.8,50.9,-41.8,59.2,-32.5C67.4,-23.2,74.6,-11.6,73.3,-0.8C72,10.1,62.2,20.2,52.6,27.2C43,34.2,33.6,38.1,24.9,40.4C16.2,42.6,8.1,43.2,-3.9,50C-15.9,56.8,-31.9,69.8,-46,70.7C-60.1,71.5,-72.4,60.2,-72.7,46.4C-72.9,32.6,-61.1,16.3,-54.2,4C-47.2,-8.3,-45.1,-16.5,-44.3,-29.4C-43.5,-42.2,-44,-59.7,-36.8,-70.9C-29.7,-82.1,-14.8,-87.1,-2.1,-83.5C10.7,-79.9,21.5,-67.8,31.5,-58.3Z" transform="translate(100 100)" />
</svg>
