<?xml version="1.0" standalone="no"?>
<svg viewBox="0 0 200 200" xmlns="http://www.w3.org/2000/svg">
  <path fill="#7A7EF6" d="M41,-70.3C51.7,-64.9,57.8,-50.9,65.8,-37.7C73.8,-24.6,83.7,-12.3,80.9,-1.6C78,9,62.5,18.1,49,21.7C35.5,25.3,24,23.5,16.2,27.9C8.3,32.4,4.2,43.1,-3.5,49.2C-11.2,55.3,-22.4,56.7,-31.1,52.7C-39.8,48.8,-46,39.5,-48.7,29.8C-51.3,20.1,-50.3,10.1,-51.1,-0.5C-52,-11,-54.6,-22,-52.9,-33.3C-51.1,-44.5,-45,-55.9,-35.4,-61.9C-25.9,-68,-13,-68.7,1.1,-70.6C15.2,-72.5,30.3,-75.7,41,-70.3Z" transform="translate(100 100)" />
</svg>
