<?xml version="1.0" standalone="no"?>
<svg viewBox="0 0 200 200" xmlns="http://www.w3.org/2000/svg">
  <path fill="#7A7EF6" d="M46,-71.8C60,-71.7,71.8,-60,79,-46.1C86.1,-32.2,88.5,-16.1,81.4,-4.1C74.4,8,57.8,15.9,46.6,22.7C35.4,29.6,29.6,35.3,22.7,47.1C15.8,58.9,7.9,76.7,-4.1,83.7C-16.1,90.8,-32.2,87.2,-40.2,76.1C-48.3,65,-48.3,46.5,-55.2,32.5C-62.2,18.6,-75.9,9.3,-80.4,-2.6C-84.9,-14.5,-80.2,-29,-71.7,-40.2C-63.2,-51.4,-51,-59.3,-38.4,-60.2C-25.9,-61.2,-12.9,-55.1,1.6,-57.8C16,-60.5,32.1,-71.9,46,-71.8Z" transform="translate(100 100)" />
</svg>
