<?xml version="1.0" standalone="no"?>
<svg viewBox="0 0 200 200" xmlns="http://www.w3.org/2000/svg">
  <path fill="#7A7EF6" d="M36.8,-68.1C46.9,-58,53.6,-46.4,60.2,-34.8C66.8,-23.2,73.4,-11.6,76.9,2C80.5,15.7,81,31.4,71,37.1C61,42.9,40.5,38.7,26.9,42.2C13.3,45.8,6.6,57,-3.9,63.7C-14.4,70.4,-28.7,72.5,-42.4,69C-56.1,65.5,-69.1,56.5,-70.7,44C-72.3,31.6,-62.5,15.8,-58.1,2.6C-53.6,-10.6,-54.4,-21.3,-52.7,-33.5C-51,-45.8,-46.7,-59.6,-37.5,-70.2C-28.3,-80.8,-14.1,-88.2,-0.4,-87.5C13.4,-86.8,26.8,-78.2,36.8,-68.1Z" transform="translate(100 100)" />
</svg>
