<?xml version="1.0" standalone="no"?>
<svg viewBox="0 0 200 200" xmlns="http://www.w3.org/2000/svg">
  <path fill="#7A7EF6" d="M27.1,-43.7C40.4,-39.4,59.9,-42.6,68.2,-36.6C76.4,-30.6,73.5,-15.3,73.1,-0.2C72.7,14.8,74.9,29.7,69.6,40.9C64.3,52.1,51.6,59.7,38.8,65.2C25.9,70.7,13,74.1,2.2,70.2C-8.5,66.4,-17,55.3,-23.3,46C-29.5,36.7,-33.5,29.2,-44.2,21.8C-54.8,14.4,-72.2,7.2,-72.9,-0.4C-73.7,-8,-57.7,-16.1,-48.1,-25.2C-38.4,-34.4,-35.1,-44.7,-28.1,-52.6C-21.1,-60.5,-10.6,-66.1,-1.8,-63C7,-59.8,13.9,-48,27.1,-43.7Z" transform="translate(100 100)" />
</svg>
