<?xml version="1.0" standalone="no"?>
<svg viewBox="0 0 200 200" xmlns="http://www.w3.org/2000/svg">
  <path fill="#7A7EF6" d="M31.5,-54.8C39.1,-50.1,42.4,-38.2,48.5,-27.9C54.6,-17.6,63.5,-8.8,70.2,3.9C77,16.6,81.7,33.3,73.6,40.1C65.5,46.9,44.5,43.9,30.1,42C15.7,40.2,7.9,39.5,-0.6,40.5C-9.1,41.6,-18.2,44.5,-32,46C-45.7,47.4,-64,47.5,-67.2,39.6C-70.3,31.7,-58.2,15.9,-55.1,1.8C-52.1,-12.3,-58,-24.6,-56.8,-35.9C-55.7,-47.3,-47.5,-57.6,-36.8,-60.5C-26.2,-63.5,-13.1,-58.9,-0.6,-57.9C11.9,-56.9,23.8,-59.4,31.5,-54.8Z" transform="translate(100 100)" />
</svg>
