<?xml version="1.0" standalone="no"?>
<svg viewBox="0 0 200 200" xmlns="http://www.w3.org/2000/svg">
  <path fill="#7A7EF6" d="M35,-68.1C40.8,-57.4,37.6,-38.6,38.4,-26C39.2,-13.3,43.9,-6.6,52.5,5C61.1,16.6,73.6,33.1,69.6,40.3C65.7,47.5,45.3,45.3,30.9,48.8C16.6,52.3,8.3,61.5,-2.1,65.2C-12.6,68.9,-25.2,67.1,-35.6,61.4C-46.1,55.7,-54.5,46,-59.7,35.1C-64.9,24.2,-67.1,12.1,-60.3,3.9C-53.6,-4.3,-38.1,-8.7,-32.4,-18.9C-26.8,-29.1,-31.1,-45.2,-27.3,-57C-23.6,-68.9,-11.8,-76.5,1.4,-79C14.6,-81.5,29.3,-78.8,35,-68.1Z" transform="translate(100 100)" />
</svg>
