<?xml version="1.0" encoding="UTF-8"?>
<svg id="Layer_2" data-name="Layer 2" xmlns="http://www.w3.org/2000/svg" viewBox="0 0 394.29 394.29">
  <g id="Layer_3" data-name="Layer 3">
    <g>
      <path d="m309.89,0H84.41C37.98,0,0,37.98,0,84.41v225.48c0,46.42,37.98,84.41,84.41,84.41h225.48c46.42,0,84.41-37.98,84.41-84.41V84.41c0-46.42-37.98-84.41-84.41-84.41Zm67.18,315.53c0,34.12-27.92,62.03-62.03,62.03H78.26c-34.12,0-62.03-27.92-62.03-62.03V78.76c0-34.12,27.92-62.03,62.03-62.03h236.76c34.12,0,62.03,27.92,62.03,62.03v236.76Z"/>
      <path d="m307.8,261.66c-.2-3.81-.72-6.99-1.18-9.28-3.97-18.41-7.93-36.82-11.9-55.23-1.02-4.33-2.17-11.61-.79-20.44,1.49-9.43,5.19-16.35,7.63-20.19,1.56-3.97,3.13-7.94,4.7-11.91.95-2.23,1.14-4.09,1.15-5.29.02-2.92-.97-5.34-2.15-8.2-.47-1.14-.91-2.06-1.23-2.69-6.23-14.68-12.47-29.37-18.71-44.05-1.55-3.71-5.88-5.48-9.58-3.92-3.7,1.57-5.45,5.92-3.86,9.62,2.34,5.56,4.68,11.11,7.02,16.66.62,1.32,1.06,2.46,1.36,3.32.69,1.96.72,2.59.71,2.98-.02.72-.22,1.35-.63,2.57-.38,1.14-.76,2.07-1.06,2.76-1.79,4.4-3.58,8.8-5.37,13.2-.5.79-1.59,2.76-1.6,5.52,0,2.78,1.11,4.78,1.6,5.57,2.11,4.17,4.21,8.35,6.32,12.53,1.7,2.07,2.02,3.85,2.08,4.83.04.54.02,1.3-.84,4.6-.47,1.82-.91,3.31-1.24,4.37-1.46,7.13-1.56,12.95-1.37,16.94.21,4.48.84,8.22,2.02,15.14.8,4.66,1.58,8.5,2.14,11.14,2.65,12.36,5.31,24.73,7.96,37.1.47,1.86,1.04,4.61,1.35,7.98.68,7.29,1.51,16.24-3.4,21.72-3.69,4.12-9.1,4.59-16.73,5.25-8.79.76-15.93-.73-20.26-1.95V84.98c0-10.82-8.86-19.68-19.68-19.68h-117.97c-10.83,0-19.69,8.86-19.69,19.68v225.08c0,10.83,8.86,19.69,19.69,19.69h117.97c10.82,0,19.68-8.86,19.68-19.69v-12.89c4.75,1.14,12.2,2.4,21.26,1.62,9.39-.82,19.4-1.68,26.51-9.4,7-7.6,7.9-18.27,8.03-19.82.14-1.64.24-4.58.06-7.91Zm-134.96,24.14c-13.42,0-24.3-10.15-24.3-22.66,0-3.89,1.05-7.56,2.91-10.76l.07-.13,21.7-37.23,20.87,37.11.14.25c1.87,3.2,2.92,6.87,2.92,10.76,0,12.51-10.88,22.66-24.31,22.66Zm52.85-130.04h-104.26v-55.53h104.26v55.53Z"/>
    </g>
  </g>
</svg>