<?xml version="1.0" encoding="UTF-8"?>
<svg id="Layer_2" data-name="Layer 2" xmlns="http://www.w3.org/2000/svg" viewBox="0 0 409.33 409.33">
  <g id="Layer_3" data-name="Layer 3">
    <g>
      <path d="m204.66,0C91.63,0,0,91.63,0,204.66s91.63,204.66,204.66,204.66,204.66-91.63,204.66-204.66S317.7,0,204.66,0Zm0,389.93c-102.32,0-185.27-82.95-185.27-185.27S102.34,19.39,204.66,19.39s185.27,82.95,185.27,185.27-82.95,185.27-185.27,185.27Z"/>
      <rect x="298.09" y="196.84" width=".4" height="15.74"/>
      <path d="m316.02,130.65c0,11.5-7.53,21.25-17.93,24.57v57.36h-85.06v43.35c9.82,3.54,16.84,12.94,16.84,23.98,0,14.07-11.41,25.48-25.49,25.48s-25.48-11.41-25.48-25.48c0-11.62,7.77-21.42,18.39-24.49v-42.84h-70.62v43.08c10.23,3.32,17.61,12.92,17.61,24.25,0,14.07-11.4,25.48-25.48,25.48s-25.48-11.41-25.48-25.48c0-11.33,7.39-20.93,17.61-24.25v-100.44c-10.4-3.32-17.93-13.07-17.93-24.57,0-14.25,11.55-25.8,25.8-25.8s25.8,11.55,25.8,25.8c0,11.5-7.53,21.25-17.93,24.57v41.62h70.62v-41.46c-10.66-3.17-18.43-13.04-18.43-24.73,0-14.25,11.55-25.8,25.8-25.8s25.8,11.55,25.8,25.8c0,11.32-7.29,20.93-17.43,24.4v41.79h69.32v-41.62c-10.4-3.32-17.93-13.07-17.93-24.57,0-14.25,11.55-25.8,25.8-25.8s25.8,11.55,25.8,25.8Z"/>
    </g>
  </g>
</svg>