<?xml version="1.0" encoding="UTF-8"?>
<svg id="Layer_2" data-name="Layer 2" xmlns="http://www.w3.org/2000/svg" viewBox="0 0 218.37 275.42">
  <g id="Layer_3" data-name="Layer 3">
    <path d="m218.37,192.73v76.08c0,3.65-2.96,6.61-6.61,6.61h-30.94c-3.65,0-6.61-2.96-6.61-6.61v-30.53h-45.93c-3.39,7.12-10.66,12.04-19.07,12.04s-15.68-4.92-19.08-12.04h-45.98v30.53c0,3.65-2.96,6.61-6.6,6.61H6.6c-3.64,0-6.6-2.96-6.6-6.61v-76.08c0-3.65,2.96-6.61,6.6-6.61h30.95c3.64,0,6.6,2.96,6.6,6.61v27.37h45.98c2.09-4.37,5.63-7.92,10.01-10V63.81c-4.39-2.07-7.94-5.62-10.03-10h-45.96v28.88c0,3.64-2.96,6.6-6.6,6.6H6.6c-3.64,0-6.6-2.96-6.6-6.6V6.6C0,2.95,2.96,0,6.6,0h30.95c3.64,0,6.6,2.95,6.6,6.6v29.03h45.96c3.39-7.12,10.65-12.04,19.07-12.04s15.68,4.92,19.07,12.04h45.58V6.6c0-3.65,2.96-6.6,6.6-6.6h30.95c3.64,0,6.6,2.95,6.6,6.6v76.09c0,3.64-2.96,6.6-6.6,6.6h-30.95c-3.64,0-6.6-2.96-6.6-6.6v-28.88h-45.58c-2.07,4.36-5.61,7.89-9.97,9.98v146.31c4.37,2.08,7.92,5.63,10,10h45.93v-27.37c0-3.65,2.96-6.61,6.61-6.61h30.94c3.65,0,6.61,2.96,6.61,6.61Z"/>
  </g>
</svg>